<?xml version="1.0" encoding="iso-8859-1"?>
<!-- Generator: Adobe Illustrator 19.0.0, SVG Export Plug-In . SVG Version: 6.00 Build 0)  -->
<svg version="1.1" id="Layer_1" xmlns="http://www.w3.org/2000/svg" xmlns:xlink="http://www.w3.org/1999/xlink" x="0px" y="0px"
	 viewBox="0 0 512 512" style="enable-background:new 0 0 512 512;" xml:space="preserve">
<rect x="113.932" y="162.678" style="fill:#333E48;" width="284.123" height="309.235"/>
<rect x="113.932" y="162.678" style="opacity:0.2;enable-background:new    ;" width="284.123" height="95.749"/>
<g>
	<path style="fill:#D1D3D3;" d="M269.257,10.887c-7.291-5.449-19.221-5.449-26.512,0L77.735,134.223
		c-7.291,5.449-5.809,9.908,3.293,9.908h349.942c9.103,0,10.584-4.459,3.293-9.908L269.257,10.887z"/>
	<rect x="73.672" y="205.774" style="fill:#D1D3D3;" width="89.084" height="230.854"/>
</g>
<rect x="73.672" y="205.774" style="opacity:0.1;enable-background:new    ;" width="89.084" height="23.237"/>
<g>
	<path style="fill:#A4A9AD;" d="M162.76,212.911c7.525,0,13.624-6.1,13.624-13.624c0-7.524-6.099-13.624-13.624-13.624H73.672
		c-7.525,0-13.624,6.1-13.624,13.624c0,7.524,6.099,13.624,13.624,13.624L162.76,212.911L162.76,212.911z"/>
	<path style="fill:#A4A9AD;" d="M162.76,429.481h-36.269V237.001h-16.55v192.479H73.672c-7.525,0-13.624,6.1-13.624,13.624
		c0,7.524,6.099,13.624,13.624,13.624h89.089c7.525,0,13.624-6.1,13.624-13.624C176.385,435.581,170.285,429.481,162.76,429.481z"/>
</g>
<rect x="211.457" y="205.774" style="fill:#D1D3D3;" width="89.084" height="230.854"/>
<rect x="211.457" y="205.774" style="opacity:0.1;enable-background:new    ;" width="89.084" height="23.237"/>
<g>
	<path style="fill:#A4A9AD;" d="M300.541,212.911c7.525,0,13.624-6.1,13.624-13.624c0-7.524-6.099-13.624-13.624-13.624h-89.089
		c-7.525,0-13.624,6.1-13.624,13.624c0,7.524,6.099,13.624,13.624,13.624L300.541,212.911L300.541,212.911z"/>
	<path style="fill:#A4A9AD;" d="M300.541,429.481h-36.269V237.001h-16.55v192.479h-36.269c-7.525,0-13.624,6.1-13.624,13.624
		c0,7.524,6.099,13.624,13.624,13.624h89.089c7.525,0,13.624-6.1,13.624-13.624C314.165,435.581,308.066,429.481,300.541,429.481z"
		/>
</g>
<rect x="349.232" y="205.774" style="fill:#D1D3D3;" width="89.084" height="230.854"/>
<rect x="349.232" y="205.774" style="opacity:0.1;enable-background:new    ;" width="89.084" height="23.237"/>
<g>
	<path style="fill:#A4A9AD;" d="M438.321,212.911c7.525,0,13.624-6.1,13.624-13.624c0-7.524-6.099-13.624-13.624-13.624h-89.089
		c-7.525,0-13.624,6.1-13.624,13.624c0,7.524,6.099,13.624,13.624,13.624L438.321,212.911L438.321,212.911z"/>
	<path style="fill:#A4A9AD;" d="M438.321,429.481h-36.269V237.001h-16.55v192.479h-36.269c-7.525,0-13.624,6.1-13.624,13.624
		c0,7.524,6.099,13.624,13.624,13.624h89.089c7.525,0,13.624-6.1,13.624-13.624C451.945,435.581,445.845,429.481,438.321,429.481z"
		/>
</g>
<path style="fill:#D1D3D3;" d="M476.446,481.647c0,2.993-2.449,5.443-5.443,5.443H40.997c-2.993,0-5.443-2.449-5.443-5.443v-19.476
	c0-2.993,2.449-5.442,5.443-5.442h430.007c2.993,0,5.443,2.448,5.443,5.442v19.476H476.446z"/>
<g>
	<path style="fill:#A4A9AD;" d="M501.6,506.557c0,2.993-2.449,5.443-5.443,5.443H15.843c-2.993,0-5.443-2.449-5.443-5.443v-19.476
		c0-2.993,2.449-5.442,5.443-5.442h480.314c2.993,0,5.443,2.448,5.443,5.442L501.6,506.557L501.6,506.557z"/>
	<path style="fill:#A4A9AD;" d="M459.798,133.436c0-6.068-4.965-11.033-11.033-11.033H63.234c-6.068,0-11.033,4.965-11.033,11.033
		v23.602c0,6.068,4.965,11.033,11.033,11.033h385.531c6.068,0,11.033-4.965,11.033-11.033V133.436z"/>
</g>
<path style="fill:#D1D3D3;" d="M482.319,161.51c0-6.068-4.965-11.033-11.033-11.033H40.715c-6.068,0-11.033,4.965-11.033,11.033
	v13.119c0,6.068,4.965,11.033,11.033,11.033h430.571c6.068,0,11.033-4.965,11.033-11.033V161.51z"/>
<circle style="fill:#A4A9AD;" cx="255.999" cy="55.642" r="55.642"/>
<path style="fill:#D1D3D3;" d="M256.683,19.162c1.993,0,3.569,1.578,3.569,3.569v1.826c4.898,0.58,9.047,2.158,12.866,4.566
	c1.328,0.747,2.49,1.992,2.49,3.983c0,2.574-2.075,4.566-4.648,4.566c-0.83,0-1.659-0.249-2.489-0.747
	c-2.905-1.743-5.727-2.988-8.55-3.652V49.21c12.618,3.154,18.012,8.218,18.012,17.1c0,9.13-7.139,15.19-17.68,16.186v4.981
	c0,1.993-1.578,3.569-3.569,3.569s-3.652-1.577-3.652-3.569v-5.146c-6.226-0.665-11.954-2.906-17.017-6.474
	c-1.411-0.914-2.242-2.242-2.242-3.984c0-2.574,1.993-4.566,4.566-4.566c0.996,0,1.993,0.332,2.739,0.914
	c3.901,2.822,7.72,4.732,12.285,5.562V57.428c-12.119-3.154-17.763-7.72-17.763-17.099c0-8.882,7.056-15.025,17.432-15.855v-1.743
	C253.031,20.74,254.691,19.162,256.683,19.162z M253.362,47.468V32.775c-5.312,0.498-7.968,3.321-7.968,6.973
	C245.394,43.235,246.971,45.393,253.362,47.468z M259.92,59.006v15.107c5.313-0.581,8.218-3.237,8.218-7.221
	C268.138,63.238,266.312,60.998,259.92,59.006z"/>
<g>
</g>
<g>
</g>
<g>
</g>
<g>
</g>
<g>
</g>
<g>
</g>
<g>
</g>
<g>
</g>
<g>
</g>
<g>
</g>
<g>
</g>
<g>
</g>
<g>
</g>
<g>
</g>
<g>
</g>
</svg>
